<svg width="622.602" height="161.745" version="1.0" viewBox="0 0 2334.7 606.54" xmlns="http://www.w3.org/2000/svg"><g clip-rule="evenodd"><text x="1330.623" y="288.996" fill-rule="evenodd" font-family="'Times New Roman', Times" font-size="180" font-weight="bold" stroke-linejoin="bevel" stroke-miterlimit="16">Abbey Press</text><text x="1330.623" y="433.121" fill-rule="evenodd" font-family="'Times New Roman', Times" font-size="180" font-weight="bold" stroke-linejoin="bevel" stroke-miterlimit="16">Glastonbury</text><path d="M593.3 35.438c-.009.014-.014.091-.021.15h.017c.013-.129.011-.172 0-.15zm-.021.15h-4.72c-5.238 29.307-11.471 60.478-23.677 89.032-10.944 6.855-5.177 6.275-12.313 7.577-2.25 1.235-7.995 2.689-6.63 2.84-18.221 15.421-21.125 11.936-22.731 13.26-34.267 18.994-15.205 8.898-80.506 20.837-14.496 11.958-5.143 3.023-13.26 16.101-1.54 9.372-.859 11.935-6.63 15.154-2.386 2.032-.148 8.159-1.894 4.737-10.88 3.452-12.107 4.399-16.102 5.683-27.693 17.574-58.247-7.16-84.293 14.207-7.899 15.853-2.28 16.119-8.525 16.1-18.673.052-10.363-1.638-35.991 4.737-13.452 10.47-10.148 2.689-23.678 33.15 1.03 9.36 3.423 6.09 1.214 10.788-3.369-1.956-44.003-4.47-58.042 18.572-17.64 2.538-35.298-.81-53.04 35.044-9.815 2.915-5.627 4.207-12.312 5.683-25.906 28.81-55.081 48.012-88.083 46.41-2.409 2.346-3.671 1.032-3.79 9.471 26.65-2.638 59.876-4.2 79.56-32.203 15.068-8.902 3.877-6.06 11.365-7.577 4.125 3.152 1.12 3.507.947 7.577-2.505 10.437 1.51 2.691-6.63 15.156-10.622.215-9.18-4.426-11.366 2.84-4.972-.828-23.17 16.756-33.149 17.996-14.484 10.589-30.038 16.684-43.568 21.786.14 3.174.022-.604 0 24.625 22.927-28.91 62.803-40.512 92.82-57.775 5.597 13.053 1.863.03 2.84 14.207 1.539 4.121 2.058 9.037 3.79 11.365 11.376 21.847 5.24 7.093 18.941 31.257-6.36 5.993-68.47 8.705-62.509 35.99 11.8 7.844 14.572 1.913 27.465 1.894 15.413 4.218 25.348-3.273 22.733 4.737 1.928 3.925 2.626 9.082 3.788 15.154-1.01 2.183 2.422 4.95 1.893 5.683 13.745 17.37 5.801 31.255 15.154 52.092 5.12 2.514 14.09.717 16.482.688-12.768-5.79-10.714-13.314-11.746-19.632 6.235-12.572 33.012-1.605 30.308-7.576 13.648-3.393 23.702-21.783 36.94-25.572 60.113-7.548 123.03-5.903 182.8 5.681 13.97 14.011 12.667 24.645 37.885 39.78 3.09 1.71-7.358 5.143-2.84 3.79 9.797-.992 20.127-.09 27.467-2.843-14.366-2.842-21.966-12.001-24.626-17.048 25.876.514 51.439-19.094 72.93-36.938 17.91-9.087 32.925-20.324 43.569-37.887 19.094-1.11 10.118-1.476 24.625-1.894 25.865 7.048 8.805 1.84 35.99 4.736 41.73-10.97 34.552-31.71 44.516-43.568 4.058-.022 7.74 2.041 14.207 5.682 42.817 5.638 22.16 14.71 51.145 28.414 29.073 3.107 75.246 6.672 90.925 36.94 6.781 18.199 1.046 33.956-5.683 51.145 7.61.558 13.508-.422 11.366-.947-.311-18.203.789-34.283 3.79-51.147 6.437 2.515 19.16-.196 21.783 0 63.202-1.206 10.958-3.1 65.352.948 62.46 2.764 46.142 2.818 96.607-17.049 21.991-3.263 18.891-3.843 34.097-3.787 16.986 6.715 36.53 14.14 53.04 24.625 13.411 15.657 15.34 28.769 38.832 43.568 17.296 8.187 19.612 15.883 45.462 15.154-8.728-7.008-32.084-13.597-42.62-20.837-13.616-10.26-21.093-20.007-29.362-33.15-8.62-14.64-29.402-21.665-41.674-27.466-4.28-3.253-.632-2.467-.947-2.841 43.505-.648 90.452 19.51 133.55 26.518 33.464 1.128 25.938-3.059 39.78-3.788 27.155-6.522 56.668-16.523 83.347-19.89 15.243 2.742 32.677 4.873 47.357 5.683 45.422-1.065 6.792-3.888 59.67 0 53.072 9.535 108.68 31.61 161.96 36.938 67.741-5.564 138.18-10.796 205.53-15.154 42.417-.625 87.805 6.252 129.76 3.788 56.893-9.042 115.79-12.959 172.38-12.311 24.861-.237-.193.43 50.197 7.577-.621-4.144 8.246-3.93 4.735-5.683-75.867-15.446-155.63-3.468-232.05 4.734-108.55-7.255-216.91-1.075-323.92 11.366-57.202-7.159-118.47-26.382-176.17-38.832-68.105-3.111-40.243 5.757-104.19-6.63-67.383-30.87-121.28-96.963-186.58-126.92-4.766-1.583-4.701-.067-18.942-3.79-71.605.375-144.43 4.383-215-18.94-.418-9.116.15-4.651-.949-11.366-2.346-8.31-3.355-3.433-3.787-10.418-3.097-9.43-3.098-6.06-10.42-13.26-27.681-7.374-20.77-23.616-46.41-25.573-3.163 4.972 27.987 4.573 33.15 27.467 17.308-5.576 23.44 9.265 27.466 31.257-44.03-7.622-7.487-3.06-62.51-14.207-5.475-7.503-12.58-10.453-17.995-16.103-9.083-5.598-16.681-17.03-17.995-12.311-38.044-31.074-10.182-5.943-40.727-31.256-27.186-42.762 42.05-18.568 42.62 9.472 1.584-2.175 19.46 3.507 16.102 9.471 4.899-2.54 14.185-.07 17.05.869-.032-4.147 1.145-2.598 0-4.658-9.264-.237-8.609.655-13.26-.947.98-2.198-10.171-11.928-16.102-12.313-9.568-18.288-9.534-10.203-16.101-23.678-21.148-7.892-5.79-5.8-28.414-9.47-14.4-14.37-10.052-3.339-21.784-17.05-1.118-3.574-4.636-2.4-6.63-5.681-27.141-10.7-58.385-27.923-74.823-52.093-11.935-5.243-3.305-4.188-17.05-9.471-16.237-26.845-4.184-3.703-15.153-30.308-3.216-18.976-2.74-39.975-5.682-58.722-16.564-13.585 12.378-1.865-39.78-6.63-2.075.472-1.984-2.233-1.91-2.843zm256.69 233.86v.08c1.315.423 1.073.272 0-.08zm-671.14 301.01c.19.086.37.174.567.26.162-.2-.073-.265-.567-.26zm421.09-521.61c32.054.16 24.348-.01 29.36 42.622-13.525 9.146-9.855 5.564-15.153 13.26 1.583 2.25-3.745-4.296-2.843-6.63 6.083-3.552 9.69-4.35 5.683-8.524 5.868-13.467-6.541.096-4.736-8.524 6.471 1.332 7.633 2.57 12.313-1.896-.979-.126-5.672-4.688-2.1-9.196-.21-.17-.816-1.028-3.583-1.221-3.141 1.128 4.115-2.896 3.79-2.84.71 1.226-.95-2.96-3.663-2.843-.688.613-1.136.724-.127 0h.127c.904-.807 2.223-2.484 1.19-4.28-.461.425-1.008.187-1.317-1.404.628.467 1.05.94 1.316 1.403 1.55-1.43 2.107-10.446-10.787-1.403 2.864 14 .433.16.947 21.784-13.593 13.774-7.565-3.414-10.418 14.207-.666 1.913 3.134 1.914 6.63 1.896 1.336.374-.256 13.407-3.79 2.84-13.43-8.268-15.733-1.487-10.417-43.567 3.348-4.103 2.467-2.79 7.577-5.683zm4.098 4.515c-.639-.012-1.368.348-2.204 1.169-9.309 8.243-3.475 3.615-4.737 5.683 3.17 1.292 4.81 1.726 5.533 1.86-1.85-.027-8.412 1.389-5.533 18.977 7.267-.906 7.796.818 11.366-.947-.131-1.851.774-26.642-4.425-26.742zm-2.955 12.115c.537-.158 1.48 4.742-.196.42.051-.27.119-.397.196-.42zm-16.044 33.265c5.887-.455 9.866 14.732 8.27 28.718-25.68.966-12.817-11.928-9.472-28.414.408-.174.81-.273 1.202-.303zm47.102 2.197c4.103 13.12 5.124 11.536 12.313 28.414-27.896 4.777-23.408 3.069-21.784-18.942 2.142-2.8 7.428-7.193 9.47-9.472zm-24.625 17.05c17.685 12.59-8.761 20.2 0 0zm-51.551 17.808c1.61-.284 5.68 4.498-2.437 3.975.884 1.151-1.913.04 1.894-2.842-.07-.733.171-1.067.543-1.133zm22.19.186c16.275 3.282 19.083-15.328 16.1 55.881-3.174 1.173-5.508 1.043-7.576 0-27.508 7.555-6.66 4.314-22.731 6.63-6.22-44.16 18.61-20.967 14.207-62.511zm28.414 2.843h3.787c-.429 28.059.766 22.472 0 55.88-3.034.193-3.4.041-4.736 0 1.358-17.33 0-37.777.949-55.88zm15.154.946c6.483.721 7.202 4.565 16.737 4.726-.075-.648.013-.892.31.01-.11 0-.203-.009-.31-.01.142 1.231.907 4.01 2.204 3.798 25.347 18.972 4.285 17.962 47.357 56.828 13.219 6.027 4.499 3.67 14.207 8.524 27.093 16.627 20.44 8.588 39.779 19.89 1.539 8.265-2.397 4.776-1.894 9.471-24.892-3.789 1.713 2.657-30.308-2.84-47.464-32.067-4.68-5.254-39.78-28.415-24.548-13.767-15.249-12.413-49.249-14.207-.137-17.589.906-38.425.947-57.775zM658 143.34c2.527-.158 2.71 2.24 10.11 7.799 9.442 13.171 5.977 7.178 10.42 12.313 19.568 27.433-4.281 6.63 66.299 42.621 4.617 6.186 5.823 8.35 8.524 12.313 3.607 7.64 5.586 9.105 1.893 13.26-3.344 1.032-.664-2.876-5.68-3.79 2.163-3.015-6.125-4.123-9.473-4.734-45.322-27.156-21.47-12.165-53.04-35.044-10.406-11.269-19.575-20.989-27.466-35.044-.43-4.52-3.119.029-2.841-9.472.485-.126.893-.2 1.254-.222zm-89.396 4.58c1.267-.01 2.116 2.367-1.837 7.955-.159 2.043-2.808-3.1.947-7.577.283-.246.597-.375.89-.378zm-13.203 3.22c-5.476 23.718 14.382 3.637-47.355 30.31-11.891 3-26.617 7.402-38.833 9.47 14.24-12.916 1.69-.497 20.837-17.996 28.48-5.879 15.598 3.982 41.674-3.788 8.32-13.519 13.692-15.284 23.678-17.996zm-33.15 6.63c3.8.017 1.454-.118 2.841.948-2.386 6.015-7.22 2.948-11.365 2.84.174-3.607-.503.288 8.524-3.789zm-51.144 14.206h3.787c-7.07 4.895-3.97 3.035-14.207 10.42-6.623 6.681-10.95 11.495-11.34 11.442 1.345 3.456-14.937 3.834-7.6-3.866-.182-5.8 8.246-16.63 29.36-17.996zm75.77 10.42c8.298 2.763-1.032-1.692 5.683 20.836-27.53-.325-59.021.847-88.083 1.894 23.412-14.973 55.998-8.709 82.4-22.731zm-99.505 17.723c.357.043.513.565.055 2.166-.62-.53-1.75 1.466-.983-1.732-.638.494-1.073 1.08.036-.163-.016.067-.02.1-.036.163.314-.244.668-.465.927-.434zm138.74 2.282c-.029-.05.385.158 1.496.831l-.06.026c1.31.685 3.138 1.449 3.848.92 2.457 32.222-7.78 20.472-39.779 49.252-1.839 9.471-2.335-3.028-12.313 18.942-14.174-.474-5.724 1.473-27.467-4.735 26.608-15.802 32.291-5.74 49.251-31.256 27.889-1.82 21.452-24.743 12.313-30.308 6.315-2.04 5.112 1.302 14.146-2.815-.79-.413-1.404-.8-1.436-.856zm20.44 5.566c13.197-.315-6.91 15.302 6.628 28.414-.503 3.196-14.022.58-21.784.946.044-10.755 13.746 6.512 15.156-29.36zm16.1 0c48.693 11.366 31.989 6.94 63.459 29.36 1.52.593.088-1.075.947 2.843-63.476-8.783-46.073 10.458-65.352-17.996.01-12.853-.903-6.848.946-14.207zm-197 2.842c13.316.71 11.907 10.351-8.523 4.735-.947.429-1.647-.088 8.524-4.735zm336.23.947c6.416.903-1.881 1.28 10.42 5.683 4.854-4.824-7.749 11.265-10.42-5.683zm-231.1 2.84h13.26c-1.202 3.164.766 1.214-3.789 7.578-49.465 2.99-12.17 3.13-47.356-.947-1.624 1.602 2.327 3.055-4.736.947-45.666.373-48.118-7.728-31.255-5.682 29.191-1.335-2.217.332 61.563-.948 4.392.029 2.25 1.28 12.313-.947zm35.3 4.692c.157 0 .313 0 .461.016 1.017.095 1.48.674-1.663 2.87.204-.221.29-.306.402-.422-.637.563-1.88 1.337-.425-2.356-.261.034-.363.046.022-.063l-.022.063c.274-.036.753-.101 1.225-.108zm-14.713 1.744a.197.197 0 01.102 0c.336.088.73.979 1.096 3.982.81.61-3.078 2.441-1.894-3.789-.15 1.639.191-.091.696-.194zm-198.36 3.935c.384-.009-.275.156 8.232.996-8.198 12.6 3.907-1.551-29.36 10.418 2.822-1.11-3.464 3.174-6.63 0 1.52-6.612 1.183-4.746 13.26-11.365 12.684.144 14.113-.04 14.497-.049zm26.229 1.943c12.53.947 29.19 1.764 43.568.947 1.487-.304.056 1.646-1.894 5.683-10.966 3.581-31.416 3.552-37.886 6.63-13.108-10.282-12.815-7.3-3.788-13.26zm64.405 3.79c28.059 3.947 60.282 3.569 89.977 3.787-8.74 12.376-2.645 11.333-36.938 10.419-30.9-2.509-25.27-6.214-59.67-7.579.896-.788-5.767 1.39 6.63-6.628zm104.64 3.684c2.097-.147 1.37 5.033-7.086 8.627-2.712-.13 6.448-6.837 6.63-8.524a1.71 1.71 0 01.456-.103zm-183.68 2.793c.38-.026.746.473 2.322 2.993-2.82.536-5.465 2.226-4.736-2.843 1.637.424 2.033-.125 2.414-.15zm215.43 6.78c-4.444 18.824-1.795 17.231 7.577 31.257-24.474.182-17.715-2.907-34.097-1.893 8.58-23.035 5.394-4.353 26.52-29.363zm-187.11 2.8a2.9 2.9 0 01.523.043h16.101c-.418 3.603.67-1.24-1.893 5.683-46.898 6.462-20.82-5.77-14.731-5.726zm202.26.99c54.527-.078 113.32 6.349 169.54 14.207 1.002 1.765 3.1-1.37 2.84 3.787-6.951.345-4.055.041-13.26 0-29.272 2.808-13.58-6.103-44.515 2.843-11.192 18.488 30.161 20.06 27.467 20.837 13.704 2.064 9.796-.282 18.941 1.894 12.842 2.937.187-2.822 16.103 3.79 17.285 23.104 16.405 9.2 28.414 26.517 1.077 1.399.28-.507-2.842.947.625 3.237 3.286.83 5.683 1.896.355 6.23 3.715 3.214 13.26 9.47 11.702-4.79 19.212 18.19-26.52 17.996-23.934-11.066-7.458-3.08-22.73-22.733-29.972-15.469-55.644-42.179-88.084-41.672-53.79-14.026-31.093-2.316-75.77-11.366-6.531-13.918-10.482-9.73-8.525-28.414zm-168.25 2.825c23.2.066 49.709 7.248 74.483 6.646-2.183 9.49-14.936 4.725-22.731 4.736-16.604-2.046-36.033-4.566-53.04-6.63-.7-2.131-2.109.75-.947-4.736.741-.013 1.487-.018 2.235-.016zm-68.534.016c12.649.44 1.961 1.342 12.313.946v3.79c-2.268-.98-8.081 4.431-12.313-4.736zm-54.934 1.895c10.84.237 25.228.621 37.885.947 4.706.137 1.629 4.11 8.525 9.47 16.072 5.425 22.397 4.766 19.888 8.525-.396-1.077-1.083 4.044-2.84 6.63-46.44 23.257-23.667 10.892-50.198 12.313-3.356-.433-.87 3.225-9.471 2.84-6.123.83-15.42 1.635-21.784.947 1.228-.603-14.107 1.591-13.26-.947-1.42-1.628-7.651-1.537-6.63-12.31 8.18-27.5 34.463-27.06 37.885-28.415zm79.848 15.06c1.298-.067 6.675.81 10.13.094-9.298 28.64-9.902 16.27-25.573 51.145-49.044 1.41-102.86.87-154.38 7.577-3.356-2.79-2.443-5.373-4.736-5.684 30.87-5.286 69.744-2.219 104.19-2.84 6.544-3.038 9.977-2.165 11.365-12.313 65.537-5.328 48.522-26.638 58.722-37.885 0-.055.104-.084.29-.094zm39.49 1.04c26.598 1.236 12.294.514 47.356 3.788-25.721 14.462-8.671.086-26.518 12.313-1.913 2.894-6.21 4.918-2.843 10.42 4.059.277 2.683 6.894 12.313 6.628 56.71 5.594 22.917-1.014 68.194 4.736 32.754 3.507 23.604-2.671 37.885 20.837-54.974 1.698-113.99-7.74-170.48-5.683.625 2.216-1.688-.01-4.736-3.788 34.733-46.065 17.168-44.7 38.833-49.25zm312.55 4.737c64.547 12.623 26.102-21.581 89.978 29.361 5.716 6.293-3.744-3.974 12.313 10.418 3.562 2.797 6.825 3.885 8.523 5.683 27.112 2.109 57.42 12.128 85.242 18.943 27.241 6.985 21.496 8.017 42.621 7.577-20.382 13.926-55.578 39.68-85.242 44.515-1.601-48.51-5.26-58.638-38.832-39.78-3.14.936-8.317 3.401-12.313 2.843-27.13 18.295-22.06 10.514-37.885 23.678-6.24 1.128-15.172 7.392-21.784 6.63-10.922 2.386-20.224 3.151-32.203 3.787-49.516-4.854-19.878 4.584-63.457-6.63-.374-11.454-4.25-12.959 2.842-17.048 57.357-5.231 22.593 5.712 71.033-5.683 7.977 1.462 3.06-2.367 13.26 2.843 59.629 1.794 61.383-6.826 69.14-21.784 9.742-12.176-28.798-20.634-26.52-20.837-17.465-23.7-24.602-30.398-38.831-37.886-29.728-5.203-11.555 3.086-42.34-5.35-3.666.783-2.618-.515-1.228-.332.453.125.795.213 1.228.331 1.065-.227 2.473-.605 4.455-1.278zm107.03 1.894c-8.942 5.435-3.552 1.893-4.736 3.787 11.573-2.96 30.527 6.445 27.467 7.577-.288 11.107 2.368 6.987 9.471 9.473.485 4.68 6.512 7.002 4.736 5.681-1.31-3.236-2.143-5.254-2.31-5.917-23.196-12.795-2.226-19.586-34.628-20.601zm34.629 20.6c.143.08.267.157.414.237-.39-.556-.51-.618-.414-.236zm-386.02-17.76c13.078 2.442 16.06.278 19.89 4.736 53.654 3.57 24.573 9.804 15.154 7.577-29.124-.614-14.8-.315-49.251 2.84-3.711.356-5.626 3.271-11.365-.946 5.372-5.75 15.982-11.195 25.572-14.207zm60.617 8.524c29.18 3.163 15.509 3.83 51.145 3.789 10 12.279 5.091 3.236-37.885 3.788-6.727-1.606-4.197.936-9.473 0 .055-.8-3.806 1.72-3.787-7.577zm70.088 4.736c24.507.451 52.407 7.595 78.612 14.207 15.402 8.21 7.631 5.25 26.518 13.26 61.005 28.155 28.987 27.822 21.784 28.414-24.226-5.772-27.94-7.075-49.25-12.313-12.623-3.951-3.69-.067-15.155-5.683-20.944-26.231-12.42-15.952-24.625-26.518-29.047-8.062-40.637 4.96-37.885-11.366zm-384.72 5.605c11.005-.054 24.43.962 36.17 6.708 28.652 4.82 42.096-5.242 35.992 5.683-29.317-2.164-62.111-.485-91.872-3.789.22-.696.07-.914-.071-.975.66-.08 3.758-1.024 15.225-7.549 1.461-.04 2.984-.07 4.556-.078zm646.12 2.919c-.181.163-.071.303.236.473-.086-.168-.134-.28-.236-.473zm.236.473c1.907 3.748-.11 1.647.71 2.37 13.67 7.447 8.258 9.814 14.208 10.417-6.252-10.226-13.367-11.928-14.918-12.787zm-319.42 7.104c23.852 5.08 17.459 1.161 35.99.947-3.292 12.516-24 40.209-35.99-.947zm52.092 3.789c30.353 3.304 40.793-.603 52.092 22.731-20.804-2.486-43.18-2.036-65.352-3.79 5.63-11.894 5.664-10.923 13.26-18.941zm-432.84 8.524h12.313c7.3 14.873-4.4 5.682-4.737 15.154 9.398 32.609 33.915 1.527 50.198 23.678-.203 3.163-1.105 1.807-9.47 1.895-.644.87-2.087-1.5-7.577-1.895-.914-15.47-59 5.39-63.458-23.678.636-4.769 13.704-12.324 22.73-15.154zm153.52 11.267c30.902-.036 30.242 1.54 19.805 10.516-27.52-1.798-16.876.181-37.887 0-26.002 3.637-54.855 1.387-81.453 0-5.12-6.911-2.216 1.946-8.524-7.577 29.073-.237 61.94.474 92.819-2.84 5.766-.055 10.824-.094 15.239-.1zm37.8 1.046c39.998.71 80.207 2.807 120.29 2.84-.267 3.13.01 1.202-.947 1.894-29.435 7.07-23.431 7.36-55.881 3.79-20.837 1.02-40.963-1.121-60.616-.948-4.23.622-.819-6.126-2.843-7.576zm-168.59 3.527c.343-.111 2.977 2.917 4.738 2.156.495 6.5-1.044 1.201-6.63 3.787.421-3.348-12.104-.41 1.895-5.683-.053-.164-.052-.244 0-.26zm375.34 2.933c1.015.094 1.386 1.088-1.11 4.74.283.182.36.241-.108.164.043-.061.067-.105.108-.165-.74-.474-2.95-1.84-1.311-4.207-.343.11-.382.086.256-.362-.104.125-.173.242-.256.362.494-.158 1.637-.605 2.42-.532zm-36.261 1.117c10.322 3.71 18.997-4.144 24.625 5.683-23.301 3.226-24.073-4.296-24.625-5.683zm57.775.947c20.622 2.83 43.105 3.776 65.352 3.787-1.85-.562 3.552-1.56 2.842 5.683-24.58-2.467-52.122 2.98-78.612-1.893-1.32-7.504 7.458-3.693 10.418-7.577zm-89.857 2.816c2.368.05 4.145.845 11.245 1.92 1.842 1.742-.355 2.001-16.101 0a6.363 6.363 0 00-.74-.574c-.829-.134-.814-.533 0 0 .772.124 2.265.01 4.527-1.322.38-.025.73-.031 1.069-.024zm168.47.971c12.96 1.387 10.85-.032 28.414 3.79-24.29-.367-29.317 4.38-28.414-3.79zm32.41 2.79c.82-.03 1.57.163 1.687 1-.982 1.643-4.264 1.689-3.846-.663-.222.021-.253-.036.057-.284-.029.1-.04.19-.057.284.373-.036 1.3-.305 2.159-.336zm-340.23 2.893c21.333 3.637 46.95 3.13 70.088.947-21.34 10.685-57.032 7.24-82.401 6.63 3.207.181 4.296-5.124 12.313-7.577zm-220.65.769c.073.009.067.067-.035.178-2.635.289 6.652-.668 5.683.949 13.067 15.217 17.2 10.707 44.515 8.524-23.493 11.602-29.717 26.474-48.304 19.888-4.529-.163.744-.162-8.524 2.842-13.61-21.16 5.557-32.509 6.665-32.382zm709.37.178c12.25-.1 12.098 2.325 14.207 23.68 3.348 25.184.958 19.75-9.471 21.784-27.733 11.203-32.051 9.675-48.304 7.577-14.518-4.34-4.336-.744-21.784-6.63 1.606-1.206 16.101-10.388 21.784-16.1 6.156-6.568 18.17-12.326 26.52-15.157 4.2-7.103 7.243-5.683 17.048-15.154zm159.12 0c27.759 1.032 22.623 3 55.88 0 61.575 1.924 43.269-3.252 77.665 7.577 12.905 5.272 14.759 7.77 23.679 14.207-13.323.107-13.95.937-23.68 1.896-56.253 10.589-13.891 16.368-100.4 6.63-26.582-.196-33.148 2.452-30.307 2.84-12.516-2.23.473 1.163-19.89 3.79-37.412 13.075-77.683 38.69-115.55 41.672-5.51-7.44-5.036-5.812-4.737-15.154-.999-3.274 1.985-8.416 1.896-12.311 12.25-7.396 10.086-.271 28.414-11.366 50.89-21.4 32.99-20.796 65.352-35.991 10.592-1.584 34.423-1.917 41.674-3.79zm-689.01.666c32.138-.118 7.737 6.858 1.387 5.017-21.599-.196-44.33.492-66.299.947.26-1.95-3.519 1.636-5.683-3.787 18.332.773 38.934-.4 58.724-1.894 4.617-.182 8.546-.27 11.87-.283zm199.34 5.964c10.785 2.83 2.35-2.22 10.419 6.63 3.855 10.437 7.879 20.59 12.31 30.308-119.15-3.63 2.746 1.637-122.18-6.628-22.63 8.265-13.463 3.807-19.89 15.154-.04 2.397-1.301-2.456-.946 6.63 33.12 18.813 70.358 10.114 105.13 13.258 46.217 8.158 35.348 3.305 41.674 11.366-54.135-3.326-17.833-1.42-63.458-7.577-31.233 5.735-68.064 3.766-100.4 1.894-47.183-.692-39.585-2.23-67.247-18.942-.936-4.329-1.472-1.433 5.683-11.366 7.965-12.51 9.042-14.737 20.837-26.52 28.532-.744 9.29-1.584 42.62.947 25.307-1.562 54.279-9.44 80.507-13.258 29.879-1.55 27.997 2.226 54.934-1.896zm55.88.947c9.883 2.013 19.687 4.551 29.362 4.736 45.699-.947 53.828-6.578 53.987 6.63.4 3.66-.139 6.648-.949 10.418-28.917 2.882-20.393 1.215-43.568.95-30.81-11.466-36.849-10.68-38.832-22.734zm-27.04 2.81c10.665-.04 7.728 1.625 12.834.98 7.588 13.419 12.486 24.31 43.568 28.414 27.23 6.885 11.398.322 46.409 6.63 1.853 3.688 2.853-2.142 2.842 4.736-.192-.884.84 5.327-1.894 7.577-25.539-5.716-53.396-8.44-79.56-12.313-8.825-2.035-.084-.958-14.206-1.894-3.67-10.378-8.524-22.28-12.313-34.097.839-.02 1.61-.03 2.32-.033zm-288.35 8.556c60.888 2.701 67.82-5.417 58.723 9.471-1.303 2.065-1.355 4.832-4.737 6.63-2.13 6.242-14.066 22.461-21.784 20.837-31.847.374-67.213-.303-99.449-8.524 26.92-4.08 11.97.193 31.256.947 49.673 2.398 34.293-16.23 35.991-29.36zm-18.762.913c5.266.22 5.107 6.103 7.396 3.824-.828 3.592 3.62 3.614-2.84 10.418-26.864-2.035-10.46 1.861-62.511-2.84-.137-.078-.193-.435 0-3.79 15.069-8.676 30.753-1.82 46.41-3.788-1.828.096 7.986-1.854 10.418-3.79a8.077 8.077 0 011.127-.034zm929.9 11.4c12.905 3.108-2.527-.906 13.26 2.841 11.839 13.141 13.852 11.44 25.573 21.784 29.039 23.442 65.588 48.293 98.5 70.088-26.024 1.732-56.016 18.606-83.346 20.837-28.628-1.639-22.655-1.616-31.256-.947-10.318-3.078-1.438-.839-11.364-1.893-3.959-.851-3.452.04-8.524-2.843-30.9-11.033-37.057-22.076-49.251-35.99-23.353-10.667-49.077-19.44-71.035-33.15-3.186-7.234-8.75-5.727-11.366-10.419-26.638-9.645-13.322-11.365-47.356-15.154-3.755-1.539 10.655-1.939 17.048-5.683.788-1.487 33.182-.84 32.202-.947 25.769 1.055 55.527 11.71 80.508-2.84 7.632-1.155 5.09-3.416 14.207-2.843 27.286-2.231 12.637-.906 32.202-2.84zm-1036.5 12.304c.409-.01.835-.01 1.28.009 15.136 2.926 16.557 1.247 27.467 3.789 8.76 7.814 19.634 10.159 29.36 14.207 29.32 1.872 61.76 9.308 91.873 7.577.27.3.15.492-5.684 8.524-32.32 5.487-67.63-8.861-100.4 8.524-13.733 3.011-7.391 3.001-24.625 10.419-4.669 1.172-.728-4.933-14.207-11.366-13.376-28.58-17.752-41.381-5.069-41.683zm540.04 3.779c6.026.089-3.097 1.055 13.42 1.912 13.822-.647.905 1.084 19.888 0 47.068 1.84 4.285-1.184 39.78.947 14.973 1.676 6.922 1.44 27.467 2.843 59.122 16.338 21.399 13.182 86.189.947 4.695 16.682-13.842 18.588 11.364 34.097 3.855 3.304-.159 1.302 10.419 1.894 25.358-3.478 59.67-8.603 84.295 17.995.1-.626 1.023.948 12.31 9.472 6.546 3.937 15.02 9.544 22.734 11.365-11.354 5.08-26.894 13.312-40.727 14.207-29.435 2.882-5.994 1.506-42.621 0-49.606-7.762-16.553-.788-82.401-.947-7.522-2.412-6.767-1.808-9.471-3.787-6.885-16.48-28.94-25.5-44.515-26.52-55.126-10.722-21.588-8.343-52.092-8.524-2.505.418-2.764-2.769-5.683-3.79-.581-27.822-57.882-28.577-51.145-29.36-6.856-12.284-5.403-19.687-2.843-22.732 1.598-.025 2.769-.032 3.63-.019zm-256.51.966c40.815 8.113 84.554 9.888 126.92 9.47-.73 3.153.765 1.462 1.893 6.63-43.298-5.298-92.03.386-134.49-12.31.4-5.384.81-.671 5.683-3.79zm555.97 4.736c59.82 7.188 25.627-1.573 90.924 35.99 16.2 9.191 35.186 15.499 52.094 23.679 7.795 6.36 5.878 4.38 16.1 16.1-48.97-8.298-27.681-7.073-60.616-7.576-14.388-1.757-7.628 1.71-17.048 0-24.507-1.443-6.253-5.8-22.731-2.84-47.312 2.075-27.693 2.57-56.828-15.155-12.731-10.108-13.785-9.796-20.837-16.1-27.226-10.147-7.412-6.434-32.73-10.356-1.867.81-2.25.906-.42-.064l.42.064c6.372-2.762 30.925-14.255 51.673-23.742zm-408.95 6.604c9.443.017 3.238 2.093 13.994.026 22.376 8.091 73.059-3.339 71.035 26.519-1.462 5.65-9.179 18.25-17.048 18.943-2.301-.552-4.41 2.041-4.737 2.84-47.582 3.819-37.733-2.884-65.352.949-4.099-5.942 1.454-3.941.947-9.472 59.906 1.894 17.793 4.692 60.617 1.895 8.321-4.103 5.631-8.772 7.577-13.26-13.497-25.425-18.994-14.285-29.36-21.784-25.078-1.11-15.682 1.957-37.887 0 1.567 5.663-2.239-2.48-3.739-1.911 0 .02.01.035.01.053 1.12.694.104 1.163 0 0-.022-.012-.034-.024-.056-.037.016-.01.032-.01.049-.016-.047-.776.3-2.222 1.845-4.719a76.748 76.748 0 012.107-.025zm-264.46 11.39c3.274.86.335.076 11.365 1.896-.182 4.854-5.057-.615-16.101 3.788.14-3.574-.847-.659 4.736-5.683zm264.25 5.684c11.636 3.422 41.222 3.874 42.62 11.366-59.924-5.146-44.244-1.077-42.62-11.366zm-347.6 13.26c13.896.914 32.59 5.345 48.304 3.788-1.066 4.325-2.506 4.488-4.737 6.63-25.968 4.454-55.922-1.917-83.348 0 10.086-6.127 25.122-8.72 39.78-10.418zm103.24.947c.077 2.183 9.15-2.801 9.472 2.84-8.069 5.898-5.414.539-16.102 7.58-24.248-.863-17.478 2.582-35.044.946 1.735-11.85 27.05-6.838 41.674-11.366zm37.886 0c33.409 5.013 70.97 1.624 106.08 1.894 27.63-.337 8.366-.432 51.147 2.842 23.926 3.422 32.364-2.639 27.465 10.418-28.037-2.22-19.822 2.797-31.255.947-59.817 1.42-16.498-1.132-83.348 13.26-15.572 9.9-21.418 10.538-20.837 31.256-1.236.966-3.184 3.096-5.682 2.84-51.844-3.703-106.88.085-159.12-4.735 11.584-28.177 18.548-23.378 23.68-33.148 4.243.869 2.151-1.488 12.31 1.893 50.964-1.657 46.702-9.796 63.458-22.73 8.44-4.651 6.557 2.407 16.103-4.737zm-150.59 21.784c28.47 2.56 21.45.322 38.832.947 3.06.085-7.211 11.225-28.414 29.36-10.418-1.927-51.372.73-68.194 26.52-4.066-5.941-9.201-9.137-9.471-22.73 10.496-5.716 16.676-2.327 24.626-9.471 5.586-13.745 2.823-16.191.947-23.679 28.177.266 37.112 1.129 41.674-.947zm-73.877 4.736c-.278 11.676.66 18.436-17.995 13.26-14.174.773.077 3.14-19.89 1.894-2.398-7.396 24.399-11.602 37.885-15.154zm354.23 1.894c52.61 2.904 5.534 1.709 50.198 1.894-.03 3.7-5.65 8.47-7.577 10.419-11.795 9.804-18.498 21.76-51.145 23.678-56.44-1.54-27.746-.528-57.777-3.788-.119-26.875 50.728-27.405 66.3-32.203zm-339.01.442c2.791-.017 7.693 7.455-3.854 9.029.26-5.772-1.225-3.037 2.84-8.524a1.22 1.22 0 011.014-.505zm58.248 35.524c.9-.009 1.723.35 1.356 1.918-2.42 2.301-5.92 7.105-17.05 17.05-3.71 2.238-5.434 3.152-14.206 5.682-44.031-.4 18.266-25.274 28.414-24.626-.955.593.33-.015 1.486-.024zm271.08 13.78c.671-.093 2.853.917-3.582 3.292 1.865.536-3.412 2.476-17.996 9.472-46.043 4.229-35.709-5.135-31.255-8.524 28.436-4.188 18.644-1.229 40.727-3.789h12.311c-.486-.266-.43-.42-.206-.45z" fill="#00bd00"/></g></svg>